# xmcd
#
# Track frame offsets:
#	150
#	11331
#	26767
#	42641
#	57730
#	76913
#	97939
#	110923
#	122089
#	136019
#	151116
#	165412
#	177526
#	195809
#
# Disc length: 2807 seconds
#
# Revision: 1
# Processed by: cddbd v1.4PL0 Copyright (c) Steve Scherf et al.
# Submitted via: audiograbber 1.81.03
#
DISCID=ad0af50e
DTITLE=Various Artist - Unvergessliche Melodien: Volksmelodien zum Mitsingen
DYEAR=2003
DGENRE=Country
TTITLE0=Boss Buebe - s'Träumli
TTITLE1=Aarburger Vokalisten - Lueged vo Berge u Tal
TTITLE2=Coro Alpestre - Potpourri-Marcia
TTITLE3=Trio Eugster - s'Ankebälleli
TTITLE4=Marie-Louise Werth - Viver senza tei
TTITLE5=La Chanson de Montreux - La Chanson de chevrier
TTITLE6=Löschzugchörli Interlaken - Mier si vo de Füürwehr
TTITLE7=Walter Mittelholzer - Min Vatter isch en Appezöller
TTITLE8=Choeur des Armaillis de la Gruyère - Le vieux chalet
TTITLE9=Gruppo Otello - Potpourri-Ticinese
TTITLE10=Ruedy Rymann - Dr Gemsjäger
TTITLE11=La Chanson de Fribourg - Le ranz des vaches
TTITLE12=Zarli Carigiet - Mis Dach isch dr Himmel
TTITLE13=Cor Viril Samedan - Dorma Bain
EXTD=
EXTT0=Christian Boss - Christian Boss\nHelbling
EXTT1=Trad.
EXTT2=Trad.
EXTT3=Alex Eugster/Max Rüeger\nEugster Music
EXTT4=M.-L. Werth/M.-L. Werth\nEdition Tell
EXTT5=Gustave Doret/Gustave Doret\nFoetisch Frères
EXTT6=Alex Eugster/Charles Lewinsky\nEugster Music
EXTT7=Trad.
EXTT8=Joseph Bovet/Joseph Bovet\nFoetisch Frères
EXTT9=Trad.
EXTT10=Ruedy Rymann
EXTT11=Joseph Bovet/Joseph Bovet\nFoetisch Frères
EXTT12=Zarli Carigiet\nO. Weissert/W. Wollenberger
EXTT13=Andreas Bezzola/Nuot Vonmoos\nEditions Coda
PLAYORDER=
